<?xml version="1.0" standalone="no"?>
<!DOCTYPE svg PUBLIC "-//W3C//DTD SVG 20010904//EN"
 "http://www.w3.org/TR/2001/REC-SVG-20010904/DTD/svg10.dtd">
<svg version="1.0" xmlns="http://www.w3.org/2000/svg"
 width="270.000000pt" height="320.000000pt" viewBox="0 0 270.000000 320.000000"
 preserveAspectRatio="xMidYMid meet">
<metadata>
Created by potrace 1.16, written by Peter Selinger 2001-2019
</metadata>
<g transform="translate(0.000000,320.000000) scale(0.100000,-0.100000)"
fill="#000000" stroke="none">
<path d="M1305 3185 c-136 -22 -273 -68 -320 -108 -42 -35 -103 -50 -275 -66
-40 -4 -78 -14 -95 -26 -17 -11 -68 -38 -115 -61 -93 -46 -187 -124 -228 -188
-22 -34 -27 -56 -32 -131 -4 -67 -8 -89 -18 -87 -8 1 -11 -1 -8 -6 10 -17 -10
-29 -40 -25 -26 4 -35 14 -57 59 -20 39 -34 55 -53 60 -64 16 -79 -43 -40
-156 24 -69 25 -75 9 -92 -14 -16 -15 -25 -4 -72 9 -42 21 -63 50 -89 28 -25
36 -39 31 -53 -15 -43 16 -74 74 -74 19 0 25 -9 38 -56 14 -50 14 -62 2 -97
-17 -47 -19 -207 -3 -257 6 -19 14 -73 19 -120 17 -186 87 -298 257 -410 118
-78 342 -157 533 -187 93 -15 110 -20 110 -35 0 -10 11 -75 26 -145 14 -69 21
-129 17 -134 -4 -4 -50 -14 -100 -22 -88 -13 -93 -13 -98 4 -14 42 -114 76
-142 48 -7 -7 -26 -6 -64 5 -76 23 -144 20 -214 -9 -33 -14 -65 -25 -72 -25
-6 0 -21 -12 -33 -28 -20 -24 -22 -35 -16 -104 7 -99 29 -185 69 -267 41 -84
82 -126 130 -135 32 -6 46 -2 88 24 28 17 54 28 60 25 5 -4 8 -3 7 2 -1 4 9
24 22 45 21 31 32 37 72 42 58 8 65 32 13 42 -19 3 -37 10 -40 14 -3 4 13 20
35 35 50 34 47 51 -7 47 -23 -2 -44 1 -47 6 -10 17 25 36 63 33 29 -2 43 4 64
25 15 15 27 32 27 39 0 8 27 14 83 17 110 7 204 34 224 65 19 29 12 98 -22
216 -13 45 -26 98 -30 117 l-6 35 108 0 c99 0 111 -2 148 -26 22 -14 84 -49
137 -78 54 -29 99 -55 102 -59 2 -4 -2 -48 -10 -97 -8 -50 -17 -105 -20 -122
-3 -18 -11 -33 -18 -33 -26 0 -66 -41 -66 -67 0 -14 -13 -41 -30 -60 -40 -45
-76 -118 -88 -179 -6 -27 -13 -59 -17 -71 -18 -56 104 -112 261 -120 191 -10
206 1 194 147 -7 94 -7 95 22 135 32 45 23 56 -32 36 l-29 -10 6 47 6 47 -33
-28 c-34 -29 -55 -30 -26 -2 24 24 19 50 -14 79 -30 24 -30 26 -20 73 22 98
39 245 30 268 -11 29 -70 77 -137 112 -47 25 -50 29 -31 35 64 18 82 11 116
-46 70 -117 185 -181 322 -180 131 1 201 35 285 140 34 43 44 51 66 47 20 -4
31 1 43 18 14 20 14 26 1 45 -13 20 -11 30 15 103 35 96 37 136 9 225 l-20 67
27 67 c23 59 26 76 21 143 -4 42 -1 132 5 200 6 68 10 132 10 142 0 9 3 17 8
17 14 0 81 98 91 134 13 47 -10 103 -45 112 -28 7 -33 18 -15 30 8 4 10 26 6
63 -5 46 -11 61 -37 83 -29 27 -30 29 -19 73 6 25 10 85 7 134 -4 78 -9 99
-42 166 -96 193 -285 313 -509 321 -81 2 -93 6 -162 44 -146 81 -378 115 -570
85z m135 -51 c-40 -34 -37 -65 8 -78 51 -14 95 3 107 42 5 17 15 32 23 32 7 0
10 5 7 11 -18 29 195 -31 286 -80 67 -37 81 -41 145 -41 85 0 207 -29 277 -67
75 -40 177 -145 215 -222 30 -61 46 -118 22 -81 -7 10 -10 11 -10 2 0 -7 6
-15 14 -18 37 -14 27 -183 -16 -268 -28 -54 -104 -127 -160 -154 -42 -19 -51
-30 -76 -85 -20 -44 -43 -74 -78 -103 -88 -73 -194 -135 -194 -115 0 13 59 61
75 61 8 0 17 4 20 10 8 13 -66 10 -84 -4 -12 -9 -13 -7 -8 8 5 12 3 17 -5 14
-7 -3 -37 -11 -65 -18 -29 -8 -53 -17 -53 -21 0 -4 -34 -6 -75 -6 -79 0 -91 6
-50 25 14 6 25 8 25 3 0 -12 75 -5 97 9 14 9 8 10 -32 7 -42 -4 -47 -3 -32 8
10 7 15 19 11 29 -7 19 5 21 20 3 9 -12 18 -12 51 -1 22 7 33 13 25 14 -10 1
-9 4 5 10 32 14 42 11 48 -9 4 -17 -1 -20 -31 -23 -21 -2 -38 -9 -40 -18 -4
-13 -3 -13 10 -2 9 7 27 10 40 7 16 -4 27 0 36 15 10 16 10 20 0 21 -7 1 5 7
27 14 24 7 39 18 38 26 -3 18 80 71 99 64 8 -3 21 2 29 11 12 15 12 16 -9 10
-25 -8 -32 11 -7 20 8 4 15 10 15 16 0 5 -13 0 -29 -11 -16 -12 -36 -21 -46
-21 -9 0 -24 -13 -33 -30 -18 -32 -49 -49 -102 -55 -18 -3 -38 -9 -44 -15 -13
-13 -66 -13 -66 0 0 16 -40 11 -46 -5 -6 -14 -8 -13 -19 2 -10 13 -16 15 -26
6 -17 -14 -81 -25 -73 -12 3 5 12 9 20 9 21 0 94 53 90 65 -1 6 -17 11 -34 12
-29 1 -32 -1 -32 -28 0 -17 -6 -32 -15 -36 -23 -8 -24 -4 -15 57 13 85 18 188
9 201 -4 7 -3 23 2 36 5 13 5 22 1 19 -11 -7 -25 4 -51 42 l-23 33 22 24 c12
12 17 26 12 29 -17 10 -58 -31 -91 -93 -37 -70 -72 -101 -112 -101 -20 0 -29
-5 -29 -17 0 -9 -11 -36 -25 -60 -25 -42 -25 -43 -5 -43 12 0 20 7 20 18 1 9
7 28 14 41 12 22 14 18 18 -50 3 -41 13 -93 23 -116 l17 -43 69 0 c39 0 69 -4
69 -10 0 -5 -5 -10 -11 -10 -5 0 -7 -4 -4 -10 3 -6 -5 -10 -18 -10 -14 0 -27
7 -31 15 -4 10 -19 15 -48 15 -25 0 -38 -4 -30 -8 7 -5 -10 -9 -39 -9 -33 0
-47 2 -38 8 12 7 12 9 0 9 -10 0 -11 3 -2 14 14 17 5 43 -17 48 -27 7 -42 -2
-42 -27 0 -13 6 -26 13 -29 8 -4 7 -5 -3 -5 -34 3 -51 -2 -45 -11 3 -5 12 -7
20 -3 8 3 15 1 15 -5 0 -5 -16 -9 -36 -8 -20 1 -38 -2 -41 -6 -2 -5 -9 -6 -14
-3 -5 4 -9 1 -9 -5 0 -7 7 -10 15 -7 8 4 17 2 20 -2 7 -12 -46 -21 -114 -21
l-56 1 45 39 c42 37 49 39 107 40 l61 0 16 47 c9 26 16 78 16 116 0 54 4 73
18 84 12 10 13 16 5 19 -9 4 -7 18 7 55 27 69 26 141 -5 207 -19 41 -29 52
-47 52 -13 0 -96 -18 -183 -41 -214 -55 -286 -70 -310 -67 -11 2 57 21 150 43
215 50 278 68 282 82 3 7 -20 24 -49 39 -76 38 -157 96 -198 140 l-35 38 50
-40 c101 -82 239 -164 275 -164 4 0 10 10 14 23 9 38 62 113 97 138 33 22 32
21 -10 -26 -52 -59 -89 -131 -75 -144 5 -6 30 -4 64 6 36 10 99 16 180 17 104
0 138 -4 200 -23 73 -23 150 -57 150 -66 0 -3 -18 4 -40 15 -88 45 -283 69
-414 51 -96 -14 -103 -17 -78 -45 56 -61 67 -128 34 -214 -13 -34 -16 -52 -9
-52 17 1 45 43 50 74 2 15 10 32 18 37 10 6 11 11 3 17 -6 4 -14 24 -17 45 -3
20 -16 51 -27 68 -12 16 -19 33 -15 37 4 4 77 7 163 7 143 -1 163 -3 228 -26
82 -30 157 -77 234 -148 53 -48 54 -50 35 -65 -11 -8 -28 -16 -37 -16 -10 0
-18 -4 -18 -10 0 -15 11 -12 47 9 l31 20 17 -26 c14 -21 15 -27 4 -34 -8 -5
-21 -9 -29 -9 -21 -1 -69 -29 -50 -30 8 0 34 7 57 16 41 16 44 16 63 -1 10 -9
22 -30 25 -45 3 -16 13 -31 21 -34 11 -4 13 0 8 19 -3 14 -7 36 -8 49 0 13 -4
22 -7 20 -3 -2 -21 17 -39 43 -29 39 -31 47 -17 54 9 5 22 16 30 24 8 8 18 11
22 7 5 -4 5 -1 1 6 -11 19 -26 15 -48 -13 -22 -28 -43 -34 -34 -9 3 8 2 12 -3
9 -5 -3 -34 22 -63 55 -95 109 -190 169 -313 196 -77 17 -252 17 -332 0 -35
-7 -63 -10 -63 -7 0 10 30 53 59 84 23 25 26 26 33 10 5 -13 7 -10 5 11 -2 25
7 37 58 78 61 51 161 110 205 123 23 7 23 7 -5 -19 -29 -25 -29 -26 -11 -41
44 -34 121 -8 114 39 -2 15 -12 23 -38 27 -20 4 -26 7 -13 8 29 1 53 11 53 22
0 30 -175 -25 -284 -89 -44 -26 -108 -73 -143 -106 -48 -44 -63 -54 -63 -40
-1 16 -3 15 -15 -6 -13 -22 -14 -23 -15 -5 -1 20 -1 20 -9 0 -4 -11 -6 -28 -3
-39 5 -18 6 -18 19 -1 16 23 17 12 2 -18 -7 -12 -13 -23 -13 -24 -4 -5 -116
57 -167 93 -73 50 -128 100 -162 146 -48 64 -64 40 -27 -40 27 -60 112 -141
204 -194 l79 -46 -39 -11 c-172 -45 -235 -58 -240 -49 -3 5 -12 2 -18 -8 -9
-12 -21 -15 -41 -11 -16 3 -38 -1 -49 -8 -26 -16 -143 -32 -293 -41 -85 -5
-113 -10 -113 -20 0 -11 39 -14 208 -14 221 0 279 8 482 65 47 13 113 31 148
39 l63 14 18 -37 c10 -20 22 -50 25 -68 9 -41 -3 -103 -20 -103 -7 0 -16 -5
-20 -12 -5 -8 -2 -9 9 -5 20 8 20 6 5 -28 -6 -14 -17 -25 -24 -25 -17 0 -70
62 -95 113 -28 55 -48 77 -71 77 -24 0 -23 -7 7 -33 l26 -22 -19 -40 c-11 -22
-27 -67 -37 -100 -10 -33 -21 -69 -25 -80 -7 -18 1 -99 15 -160 3 -14 -3 -25
-18 -34 -22 -14 -22 -13 -4 7 10 11 14 23 9 26 -6 3 -12 -1 -16 -9 -3 -9 -12
-12 -23 -9 -10 3 -14 2 -8 -3 20 -17 14 -33 -29 -67 -24 -20 -45 -36 -48 -36
-10 0 -45 36 -51 53 -4 11 -1 17 8 17 9 0 12 6 8 16 -4 10 -9 12 -16 5 -10
-10 -67 15 -67 30 0 4 -9 9 -21 12 -12 3 -18 10 -15 15 3 5 -6 22 -21 38 -15
16 -26 31 -24 34 1 2 -2 6 -8 8 -6 2 -11 -2 -11 -9 0 -8 -6 -7 -18 4 -10 10
-22 17 -25 17 -4 0 -28 10 -52 21 -34 16 -43 24 -35 34 8 9 5 14 -10 18 -11 3
-18 1 -14 -4 11 -18 -13 -9 -42 16 -16 14 -32 25 -36 25 -5 0 -8 13 -8 29 0
17 -6 31 -15 35 -12 4 -14 -1 -10 -24 l5 -30 -35 20 c-44 25 -74 27 -55 5 7
-8 9 -15 5 -15 -4 0 -1 -8 6 -17 12 -15 12 -16 -8 -11 -21 6 -42 -17 -27 -31
4 -3 9 0 12 8 4 11 6 11 13 0 8 -12 11 -11 19 1 5 8 10 11 10 6 0 -5 7 -3 15
4 13 11 15 8 15 -20 0 -21 4 -30 13 -27 6 2 11 11 9 19 -1 9 5 18 13 22 9 3
13 2 10 -4 -5 -9 14 -15 37 -11 3 0 12 -13 19 -28 11 -24 17 -28 31 -20 12 6
19 5 25 -4 4 -7 27 -19 51 -27 46 -15 57 -40 16 -40 -17 0 -23 4 -18 13 5 9 4
9 -6 0 -10 -9 -10 -14 2 -26 12 -12 17 -12 33 -1 10 7 23 10 29 7 17 -11 57
-13 51 -2 -4 5 -2 9 3 9 11 0 20 -30 15 -47 -3 -8 -15 -10 -34 -6 -37 7 -37
-7 1 -35 17 -13 30 -18 30 -12 0 5 14 10 31 10 27 0 30 -3 27 -25 -2 -15 4
-30 17 -40 19 -15 19 -16 -4 -3 -13 7 -33 18 -44 25 -16 9 -23 8 -34 -3 -8 -8
-20 -14 -26 -14 -16 1 -65 29 -51 30 6 0 11 6 11 14 0 7 -7 13 -15 12 -8 0
-19 8 -25 19 -7 11 -18 31 -27 45 -8 14 -13 28 -12 32 1 5 -1 7 -6 7 -4 -1
-26 -1 -50 0 -39 1 -42 2 -28 17 19 19 20 26 4 42 -15 15 -55 16 -63 1 -5 -7
-13 -5 -25 6 -26 23 -64 16 -68 -13 -2 -13 1 -29 7 -36 8 -10 4 -11 -20 -8
-17 3 -27 7 -22 11 13 8 34 71 25 72 -4 1 -15 1 -25 0 -9 -1 -17 3 -17 8 0 6
-7 11 -15 11 -8 0 -15 -4 -15 -10 0 -5 -5 -10 -12 -10 -9 0 -9 3 -1 11 7 7 8
24 2 47 -4 20 -6 38 -4 41 5 4 11 -11 18 -44 3 -11 5 21 5 70 0 59 -3 81 -8
65 -6 -18 -8 -8 -9 40 0 36 3 71 7 78 5 7 41 15 91 18 63 5 82 3 76 -6 -5 -8
8 -9 52 -4 32 3 61 8 65 10 4 3 12 -5 18 -16 13 -24 26 -26 34 -4 3 9 2 12 -5
8 -6 -3 -19 3 -30 15 -20 21 -12 30 8 10 7 -7 17 -8 25 -3 7 5 19 9 27 9 15 0
36 45 21 45 -6 0 -10 -7 -10 -15 0 -11 -8 -13 -32 -9 -59 10 -78 24 -71 52 4
17 2 23 -6 18 -15 -9 -14 -4 3 30 18 33 5 64 -26 64 -27 0 -58 -27 -58 -50 0
-22 26 -44 43 -37 7 3 19 -4 25 -14 14 -21 3 -26 -17 -6 -10 10 -15 8 -26 -6
-11 -16 -21 -18 -57 -11 -68 11 -107 11 -112 -2 -5 -13 12 -18 97 -30 65 -9
59 -21 -8 -17 -34 1 -53 -1 -50 -7 8 -13 -51 -13 -75 0 -15 8 -17 6 -13 -13 3
-13 -2 -8 -14 13 -14 27 -24 35 -45 35 -14 -1 -24 3 -22 7 3 4 12 8 20 8 9 0
14 6 11 13 -5 16 59 48 81 40 14 -6 15 -5 2 9 -14 15 -18 14 -47 -4 -19 -11
-33 -15 -33 -8 0 19 32 60 47 60 8 0 12 4 9 9 -7 10 81 71 162 112 56 28 57
28 77 9 42 -39 125 -13 125 39 0 20 19 26 160 52 45 9 77 22 108 45 68 53 274
107 420 113 l44 1 -32 -26z m250 -764 c13 -45 13 -73 0 -65 -18 11 -78 -15
-96 -42 -16 -25 -16 -27 2 -40 10 -7 25 -13 33 -13 9 0 1 -9 -17 -20 -33 -20
-34 -29 -16 -87 2 -8 -7 -13 -25 -13 -20 0 -31 7 -41 28 -17 35 -27 202 -12
202 20 0 83 63 103 103 l21 40 19 -29 c10 -16 24 -45 29 -64z m-412 30 c17
-28 43 -55 57 -62 34 -15 32 -25 -10 -32 -34 -7 -75 -46 -75 -72 0 -7 10 -16
22 -20 21 -6 21 -7 -5 -21 -23 -12 -27 -20 -27 -59 0 -41 -2 -45 -22 -42 -53
7 -50 189 6 323 8 19 17 35 19 35 2 0 18 -23 35 -50z m1346 -240 c53 -20 42
-101 -23 -168 -47 -48 -130 -90 -199 -101 -50 -8 -52 -7 -52 15 0 31 25 43
108 53 81 10 106 24 128 69 15 31 15 38 0 76 -26 68 -19 78 38 56z m-144 -49
c0 -5 -29 -34 -64 -64 -65 -58 -73 -70 -102 -172 l-17 -60 -8 49 c-11 67 -27
104 -51 112 -19 6 -18 9 15 43 19 20 40 46 46 59 9 17 21 22 49 23 20 0 55 4
77 8 56 12 55 12 55 2z m-1502 -150 c38 -20 126 -56 136 -56 6 -1 25 -9 41
-18 27 -16 27 -17 5 -11 -19 5 -22 3 -14 -6 10 -10 73 -20 149 -23 11 0 23 -5
27 -11 10 -14 47 -18 69 -6 15 8 21 7 25 -3 6 -17 26 -18 42 0 10 10 9 13 -5
13 -17 1 -17 1 1 15 17 13 15 14 -20 21 -38 7 -38 8 -12 15 14 4 41 6 60 4 18
-1 44 1 56 6 13 5 29 6 35 2 6 -4 2 -9 -11 -14 -16 -6 -20 -16 -19 -46 l2 -38
-165 3 c-142 2 -167 5 -178 20 -11 15 -14 15 -22 2 -8 -13 -17 -11 -62 14 -67
36 -84 52 -36 32 33 -14 37 -14 50 1 11 15 10 16 -9 11 -13 -4 -38 2 -59 12
-19 10 -42 16 -50 13 -8 -3 -14 1 -14 9 0 7 -12 21 -27 30 -29 18 -25 25 5 9z
m1267 -54 c3 -12 9 -80 12 -152 l5 -130 -40 -51 c-52 -65 -189 -171 -203 -157
-7 7 10 29 51 69 64 61 80 72 80 56 0 -6 -16 -19 -35 -31 -19 -11 -35 -25 -35
-32 0 -6 14 1 31 15 17 14 34 26 38 26 4 0 15 14 24 30 12 20 14 30 6 30 -8 0
-6 7 5 19 15 17 18 39 17 155 -1 75 1 147 5 160 7 29 29 25 39 -7z m309 -29
c-12 -64 -44 -93 -126 -116 -31 -8 -38 -8 -38 4 0 8 -4 14 -9 14 -5 0 -7 -9
-4 -20 3 -11 0 -20 -6 -20 -6 0 -11 -7 -11 -16 0 -29 -49 -120 -81 -149 l-32
-30 23 32 c19 26 24 49 27 115 3 48 11 98 21 119 16 34 20 37 72 42 30 2 78
16 105 30 65 33 66 32 59 -5z m-384 -163 c0 -71 -2 -77 -32 -111 l-33 -35 -37
15 c-21 9 -49 16 -62 16 -18 0 -30 9 -41 30 -20 38 -21 37 23 45 52 9 130 54
153 87 11 15 22 28 25 28 2 0 4 -34 4 -75z m-645 13 c39 -19 81 -38 95 -41 28
-7 75 -70 65 -86 -3 -6 -34 -11 -68 -11 -60 0 -67 4 -217 91 l-155 91 105 -5
c96 -3 111 -7 175 -39z m-1087 -34 c22 -34 22 -35 4 -29 -12 3 -24 1 -28 -6
-4 -7 -3 -9 4 -5 6 3 13 2 17 -4 3 -5 15 -10 26 -10 11 0 17 4 14 10 -3 5 15
1 41 -11 27 -11 81 -24 122 -29 40 -5 88 -17 107 -26 35 -16 72 -51 63 -59 -9
-9 -38 7 -32 17 4 6 1 9 -7 6 -8 -3 -32 3 -54 13 -29 14 -65 19 -130 19 -98 0
-110 4 -177 68 -20 19 -34 40 -31 45 3 6 1 7 -5 3 -6 -3 -16 3 -22 14 -10 18
-8 20 27 20 33 0 41 -5 61 -36z m683 -51 c130 -76 147 -89 129 -97 -14 -7 -37
-4 -74 7 -90 29 -125 19 -189 -52 -41 -46 -52 -77 -44 -126 5 -29 0 -41 -29
-76 -25 -30 -34 -51 -34 -77 -1 -40 -22 -78 -39 -68 -6 4 -3 14 9 26 21 21 17
60 -6 60 -18 0 -18 4 2 42 13 25 15 43 8 87 -4 31 -8 103 -9 161 0 58 -4 111
-9 118 -4 8 -22 22 -40 33 l-31 19 45 1 c35 1 137 19 158 28 2 0 71 -38 153
-86z m-724 -156 c29 -26 73 -57 98 -68 24 -11 47 -24 51 -30 12 -21 70 -37
169 -49 55 -6 104 -15 108 -20 5 -4 4 -18 -3 -30 -14 -27 -38 -24 -174 22
-159 53 -255 114 -316 203 -52 76 -40 71 67 -28z m840 10 c108 3 128 0 163
-18 22 -12 40 -22 40 -24 0 -2 -19 2 -42 7 -43 10 -102 7 -279 -12 -53 -6
-106 -7 -118 -2 l-22 8 22 27 c20 26 24 27 68 20 25 -4 101 -7 168 -6z m-25
-176 l63 -7 -80 -6 c-49 -3 -82 -2 -86 5 -4 5 -11 7 -17 3 -6 -3 -12 0 -15 6
-2 7 -7 10 -11 7 -4 -4 7 -17 25 -30 33 -23 75 -28 129 -15 56 12 65 13 76 4
13 -10 44 -6 88 11 33 13 31 20 -7 23 -15 1 -27 5 -27 9 0 7 123 55 163 64 16
3 26 2 23 -3 -3 -5 -23 -12 -45 -16 -22 -3 -43 -11 -47 -17 -5 -9 1 -10 22 -5
25 6 24 3 -16 -24 -99 -68 -140 -84 -215 -84 -71 0 -158 26 -201 59 -16 13
-17 14 -1 9 10 -4 17 -3 16 2 -4 21 2 35 11 29 6 -3 7 1 4 9 -7 18 -7 18 -28
10 -14 -5 -14 -9 -4 -22 11 -13 10 -15 -4 -9 -10 3 -18 2 -18 -3 0 -6 -5 -10
-11 -10 -5 0 -7 5 -3 12 5 7 2 9 -7 6 -10 -4 -15 5 -17 39 l-3 44 90 -47 c68
-36 105 -48 153 -53z"/>
</g>
</svg>
